<svg xmlns="http://www.w3.org/2000/svg" viewBox="0 0 450 450" width="450" height="450" preserveAspectRatio="xMidYMid meet" style="width: 100%; height: 100%; transform: translate3d(0px, 0px, 0px); content-visibility: visible;"><defs><clipPath id="__lottie_element_41"><rect width="450" height="450" x="0" y="0"></rect></clipPath></defs><g clip-path="url(#__lottie_element_41)"><g id="shadow" transform="matrix(0.9249454736709595,0,0,1,225.00999450683594,378.2489929199219)" opacity="0.15" style="display: block;"><g opacity="1" transform="matrix(1,0,0,1,0,0)"><path fill="rgb(128,128,128)" fill-opacity="1" d=" M0,-17.457500457763672 C42.10803985595703,-17.457500457763672 76.29650115966797,-9.634794235229492 76.29650115966797,0 C76.29650115966797,9.634794235229492 42.10803985595703,17.457500457763672 0,17.457500457763672 C-42.10803985595703,17.457500457763672 -76.29650115966797,9.634794235229492 -76.29650115966797,0 C-76.29650115966797,-9.634794235229492 -42.10803985595703,-17.457500457763672 0,-17.457500457763672z"></path></g></g><g id="solik-gloves" transform="matrix(1,0,0,1,34.45799255371094,60.190887451171875)" opacity="1" style="display: block;"><g id="body" opacity="1" transform="matrix(1,0,0,1,71.80399322509766,50.94499969482422)"><g id="body-base" opacity="1" transform="matrix(1,0,0,1,115.06700134277344,113.24500274658203)"><path fill="rgb(19,158,241)" fill-opacity="1" d=" M0,-113.24500274658203 C63.50492477416992,-113.24500274658203 115.06600189208984,-62.499916076660156 115.06600189208984,0 C115.06600189208984,62.499916076660156 63.50492477416992,113.24500274658203 0,113.24500274658203 C-63.50492477416992,113.24500274658203 -115.06600189208984,62.499916076660156 -115.06600189208984,0 C-115.06600189208984,-62.499916076660156 -63.50492477416992,-113.24500274658203 0,-113.24500274658203z"></path></g><g id="body-shade" opacity="0.5" transform="matrix(1,0,0,1,115.06700134277344,113.24500274658203)"><path fill-rule="evenodd" fill="rgb(0,122,234)" fill-opacity="1" d=" M-6.072000026702881,81.06300354003906 C57.47700119018555,81.06300354003906 108.99400329589844,30.36199951171875 108.99400329589844,-32.18199920654297 C108.99400329589844,-33.67900085449219 108.96399688720703,-35.16899871826172 108.90599822998047,-36.652000427246094 C112.89900207519531,-25.1560001373291 115.06600189208984,-12.82699966430664 115.06600189208984,0 C115.06600189208984,62.54399871826172 63.54899978637695,113.24500274658203 0,113.24500274658203 C-62.02799987792969,113.24500274658203 -112.59300231933594,64.94100189208984 -114.97799682617188,4.468999862670898 C-99.5009994506836,49.0260009765625 -56.5880012512207,81.06300354003906 -6.072000026702881,81.06300354003906 C-6.072000026702881,81.06300354003906 -6.072000026702881,81.06300354003906 -6.072000026702881,81.06300354003906z"></path></g></g><g id="hair" opacity="1" transform="matrix(1,0,0,1,187.14599609375,45.42100143432617)"><path fill="rgb(0,0,0)" fill-opacity="1" d=" M-0.8320000171661377,-0.41600000858306885 C-0.8320000171661377,-0.41600000858306885 -3.746000051498413,-8.947999954223633 6.449999809265137,-10.196000099182129 C16.645999908447266,-11.444000244140625 15.814000129699707,-1.4570000171661377 15.814000129699707,-1.4570000171661377 C15.814000129699707,-1.4570000171661377 33.292999267578125,-6.449999809265137 33.292999267578125,7.074999809265137 C33.292999267578125,18.134000778198242 19.76799964904785,15.605999946594238 19.76799964904785,15.605999946594238 C19.76799964904785,15.605999946594238 18.726999282836914,22.680999755859375 8.73900032043457,22.472999572753906 C-1.2480000257492065,22.263999938964844 -0.6240000128746033,12.484999656677246 -0.6240000128746033,12.484999656677246 C-0.6240000128746033,12.484999656677246 -20.47800064086914,22.726999282836914 -19.76799964904785,5.202000141143799 C-19.14299964904785,-10.196000099182129 -0.8320000171661377,-0.41600000858306885 -0.8320000171661377,-0.41600000858306885 C-0.8320000171661377,-0.41600000858306885 -0.8320000171661377,-0.41600000858306885 -0.8320000171661377,-0.41600000858306885z"></path></g><g id="ear-L" opacity="1" transform="matrix(0.9928971529006958,-0.11897585541009903,0.11897585541009903,0.9928971529006958,286.0072021484375,25.70629119873047)"><path fill-rule="evenodd" fill="rgb(19,158,241)" fill-opacity="1" d=" M0,28.910999298095703 C15.967000007629395,28.90999984741211 28.910999298095703,15.967000007629395 28.910999298095703,0 C28.90999984741211,-15.967000007629395 15.967000007629395,-28.90999984741211 0,-28.90999984741211 C-15.967000007629395,-28.90999984741211 -28.90999984741211,-15.967000007629395 -28.90999984741211,0 C-28.90999984741211,6.640999794006348 -26.672000885009766,12.758999824523926 -22.906999588012695,17.639999389648438 C-31.81599998474121,31.43899917602539 -47.62099838256836,56.06100082397461 -50.39799880981445,61.33700180053711 C-54.30500030517578,68.76000213623047 -26.176000595092773,87.12200164794922 -19.924999237060547,74.62000274658203 C-15.878000259399414,66.5260009765625 -7.080999851226807,43.85599899291992 -1.3819999694824219,28.878000259399414 C-0.9240000247955322,28.899999618530273 -0.46299999952316284,28.910999298095703 0,28.910999298095703 C0,28.910999298095703 0,28.910999298095703 0,28.910999298095703z"></path></g><g id="ear-R" opacity="1" transform="matrix(0.9879301190376282,0.15490005910396576,-0.15490005910396576,0.9879301190376282,92.97147369384766,24.722976684570312)"><path fill-rule="evenodd" fill="rgb(19,158,241)" fill-opacity="1" d=" M22.864999771118164,17.694000244140625 C26.655000686645508,12.803999900817871 28.910999298095703,6.664999961853027 28.910999298095703,0 C28.90999984741211,-15.967000007629395 15.967000007629395,-28.90999984741211 0,-28.90999984741211 C-15.967000007629395,-28.90999984741211 -28.90999984741211,-15.967000007629395 -28.90999984741211,0 C-28.90999984741211,15.967000007629395 -15.967000007629395,28.910999298095703 0,28.910999298095703 C0.12999999523162842,28.90999984741211 0.25999999046325684,28.90999984741211 0.38999998569488525,28.908000946044922 C6.048999786376953,43.70899963378906 13.842000007629395,63.625999450683594 17.58099937438965,71.10399627685547 C23.832000732421875,83.60600280761719 51.96099853515625,65.24400329589844 48.05400085449219,57.82099914550781 C45.50299835205078,52.9739990234375 31.958999633789062,31.804000854492188 22.864999771118164,17.694000244140625 C22.864999771118164,17.694000244140625 22.864999771118164,17.694000244140625 22.864999771118164,17.694000244140625z"></path></g><g id="eye-R" opacity="1" transform="matrix(1,0,0,1,154.53599548339844,144.0279998779297)"><path fill="rgb(255,255,255)" fill-opacity="1" d=" M0,-48.756500244140625 C26.90871238708496,-48.756500244140625 48.756500244140625,-26.90871238708496 48.756500244140625,0 C48.756500244140625,26.90871238708496 26.90871238708496,48.756500244140625 0,48.756500244140625 C-26.90871238708496,48.756500244140625 -48.756500244140625,26.90871238708496 -48.756500244140625,0 C-48.756500244140625,-26.90871238708496 -26.90871238708496,-48.756500244140625 0,-48.756500244140625z"></path></g><g id="eye-L" opacity="1" transform="matrix(1,0,0,1,224.4029998779297,143.52500915527344)"><path fill="rgb(255,255,255)" fill-opacity="1" d=" M0,-48.756500244140625 C26.90871238708496,-48.756500244140625 48.756500244140625,-26.90871238708496 48.756500244140625,0 C48.756500244140625,26.90871238708496 26.90871238708496,48.756500244140625 0,48.756500244140625 C-26.90871238708496,48.756500244140625 -48.756500244140625,26.90871238708496 -48.756500244140625,0 C-48.756500244140625,-26.90871238708496 -26.90871238708496,-48.756500244140625 0,-48.756500244140625z"></path></g><g id="iris-R" opacity="1" transform="matrix(1,0,0,1,151.68576049804688,128.81399536132812)"><path fill="rgb(0,0,0)" fill-opacity="1" d=" M-0.9639999866485596,-4.296999931335449 C21.257999420166016,-4.296999931335449 28.30500030517578,18.089000701904297 16.992000579833984,18.22100067138672 C9.20300006866455,18.312000274658203 11.96500015258789,8.670999526977539 -0.09799999743700027,8.670999526977539 C-10.666000366210938,8.670999526977539 -6.640999794006348,20.409000396728516 -18.19300079345703,19.729000091552734 C-26.738000869750977,19.22599983215332 -23.187000274658203,-4.296999931335449 -0.9639999866485596,-4.296999931335449 C-0.9639999866485596,-4.296999931335449 -0.9639999866485596,-4.296999931335449 -0.9639999866485596,-4.296999931335449z"></path></g><g id="iris-L" opacity="1" transform="matrix(1,0,0,1,229.04075622558594,128.31100463867188)"><path fill="rgb(0,0,0)" fill-opacity="1" d=" M-0.9639999866485596,-4.296999931335449 C21.257999420166016,-4.296999931335449 25.655000686645508,18.451000213623047 18.552000045776367,18.724000930786133 C5.482999801635742,19.22599983215332 11.515000343322754,7.664999961853027 -0.04600000008940697,8.168000221252441 C-11.607000350952148,8.670999526977539 -5.573999881744385,18.722999572753906 -17.63800048828125,19.22599983215332 C-27.194000244140625,19.624000549316406 -23.187000274658203,-4.296999931335449 -0.9639999866485596,-4.296999931335449 C-0.9639999866485596,-4.296999931335449 -0.9639999866485596,-4.296999931335449 -0.9639999866485596,-4.296999931335449z"></path></g><g id="eyelids" opacity="1" transform="matrix(1,0,0,1,104.69000244140625,86.31900024414062)"><path fill="rgb(19,158,241)" fill-opacity="1" d=" M0,0 C0,0 169.50399780273438,0 169.50399780273438,0 C169.50399780273438,0 169.50399780273438,3.6689999103546143 169.50399780273438,3.6689999103546143 C169.50399780273438,3.6689999103546143 0,3.6689999103546143 0,3.6689999103546143 C0,3.6689999103546143 0,0 0,0z"></path></g><g id="cheeks" opacity="1" transform="matrix(1,0,0,1,151.2689971923828,185.99899291992188)"><path fill-rule="evenodd" fill="rgb(19,158,241)" fill-opacity="1" d=" M38.95500183105469,3.447999954223633 C32.409000396728516,13.104000091552734 17.430999755859375,19.854999542236328 0,19.854999542236328 C-23.457000732421875,19.854999542236328 -42.472999572753906,7.629000186920166 -42.472999572753906,-7.452000141143799 C-42.4739990234375,-22.533000946044922 -23.457000732421875,-34.75899887084961 0,-34.75899887084961 C17.430999755859375,-34.75899887084961 32.409000396728516,-28.006999969482422 38.95500183105469,-18.35099983215332 C45.500999450683594,-28.007999420166016 60.479000091552734,-34.75899887084961 77.91000366210938,-34.75899887084961 C101.36699676513672,-34.75899887084961 120.38300323486328,-22.533000946044922 120.38300323486328,-7.452000141143799 C120.38300323486328,7.629000186920166 101.36699676513672,19.854999542236328 77.91000366210938,19.854999542236328 C60.479000091552734,19.854999542236328 45.500999450683594,13.104000091552734 38.95500183105469,3.447999954223633 C38.95500183105469,3.447999954223633 38.95500183105469,3.447999954223633 38.95500183105469,3.447999954223633z"></path></g><g id="mouth" opacity="1" transform="matrix(1,0,0,1,175.37400817871094,177.177001953125)"><path fill="rgb(0,0,0)" fill-opacity="1" d=" M0,0 C10.034000396728516,0 5.301000118255615,9.277000427246094 13.630999565124512,9.277000427246094 C21.961000442504883,9.277000427246094 18.743000030517578,0.3790000081062317 25.558000564575195,0.3790000081062317 C35.402000427246094,0.3790000081062317 33.88800048828125,21.961000442504883 13.819999694824219,21.961000442504883 C-6.247000217437744,21.961000442504883 -7.76200008392334,0 0,0 C0,0 0,0 0,0z"></path></g><g id="eyebrow-R" opacity="1" transform="matrix(0.8637057542800903,-0.46534934639930725,0.446893572807312,0.8294511437416077,92.51781463623047,95.73379516601562)"><path fill="rgb(0,0,0)" fill-opacity="1" d=" M71.73400115966797,7 C71.73400115966797,7 71.73400115966797,21.908000946044922 71.73400115966797,21.908000946044922 C71.73400115966797,25.77130126953125 68.59729766845703,28.908000946044922 64.73400115966797,28.908000946044922 C64.73400115966797,28.908000946044922 7,28.908000946044922 7,28.908000946044922 C3.136699914932251,28.908000946044922 0,25.77130126953125 0,21.908000946044922 C0,21.908000946044922 0,7 0,7 C0,3.136699914932251 3.136699914932251,0 7,0 C7,0 64.73400115966797,0 64.73400115966797,0 C68.59729766845703,0 71.73400115966797,3.136699914932251 71.73400115966797,7z"></path></g><g id="eyebrow-L" opacity="1" transform="matrix(0.8270747065544128,0.5277168154716492,-0.5067875385284424,0.7942728996276855,226.25416564941406,60.08896255493164)"><path fill="rgb(0,0,0)" fill-opacity="1" d=" M71.73400115966797,7 C71.73400115966797,7 71.73400115966797,21.908000946044922 71.73400115966797,21.908000946044922 C71.73400115966797,25.77130126953125 68.59729766845703,28.908000946044922 64.73400115966797,28.908000946044922 C64.73400115966797,28.908000946044922 7,28.908000946044922 7,28.908000946044922 C3.136699914932251,28.908000946044922 0,25.77130126953125 0,21.908000946044922 C0,21.908000946044922 0,7 0,7 C0,3.136699914932251 3.136699914932251,0 7,0 C7,0 64.73400115966797,0 64.73400115966797,0 C68.59729766845703,0 71.73400115966797,3.136699914932251 71.73400115966797,7z"></path></g><g id="drops-animated" opacity="1" transform="matrix(1,0,0,1,173.33299255371094,202.28399658203125)"><g id="drop-1" opacity="1" transform="matrix(0.3234962224960327,-1.4911733865737915,1.5880194902420044,0.34450605511665344,76.98703002929688,-38.6602668762207)"><path fill="rgb(81,193,252)" fill-opacity="1" d=" M-3.365999937057495,-13.520000457763672 C-3.365999937057495,-11.170000076293945 -5.2220001220703125,-9.265000343322754 -7.51200008392334,-9.265000343322754 C-9.800999641418457,-9.265000343322754 -11.656999588012695,-11.170000076293945 -11.656999588012695,-13.520000457763672 C-11.657999992370605,-14.520999908447266 -11.729999542236328,-16.31999969482422 -11.947999954223633,-18.792999267578125 C-12.079999923706055,-20.288000106811523 -12.565999984741211,-21.55699920654297 -11.656999588012695,-21.92099952697754 C-10.75100040435791,-22.283000946044922 -7.710999965667725,-19.433000564575195 -7.256999969482422,-19.083999633789062 C-4.89300012588501,-17.266000747680664 -3.365999937057495,-15.869999885559082 -3.365999937057495,-13.520000457763672 C-3.365999937057495,-13.520000457763672 -3.365999937057495,-13.520000457763672 -3.365999937057495,-13.520000457763672z"></path></g><g id="drop-2" opacity="1" transform="matrix(0.4662654995918274,-1.3804000616073608,1.3693817853927612,0.4625438153743744,79.1139144897461,79.57969665527344)"><path fill="rgb(81,193,252)" fill-opacity="1" d=" M-4.229000091552734,-2.8239998817443848 C-4.229000091552734,-0.7039999961853027 -5.9039998054504395,1.0149999856948853 -7.96999979019165,1.0149999856948853 C-10.03499984741211,1.0149999856948853 -11.710000038146973,-0.7039999961853027 -11.710000038146973,-2.8239998817443848 C-11.710000038146973,-3.7269999980926514 -11.776000022888184,-5.35099983215332 -11.972999572753906,-7.581999778747559 C-12.092000007629395,-8.930000305175781 -12.529999732971191,-10.076000213623047 -11.710000038146973,-10.404000282287598 C-10.892999649047852,-10.730999946594238 -8.14900016784668,-8.159000396728516 -7.739999771118164,-7.843999862670898 C-5.60699987411499,-6.203999996185303 -4.229000091552734,-4.943999767303467 -4.229000091552734,-2.8239998817443848 C-4.229000091552734,-2.8239998817443848 -4.229000091552734,-2.8239998817443848 -4.229000091552734,-2.8239998817443848z"></path></g><g id="drop-3" opacity="1" transform="matrix(-1.026370882987976,-2.071147918701172,-1.7178484201431274,0.8512909412384033,-36.180564880371094,-22.652116775512695)"><path fill="rgb(81,193,252)" fill-opacity="1" d=" M2.7750000953674316,-5.317999839782715 C2.7750000953674316,-3.8929998874664307 1.6490000486373901,-2.73799991607666 0.25999999046325684,-2.73799991607666 C-1.128000020980835,-2.73799991607666 -2.253999948501587,-3.8929998874664307 -2.253999948501587,-5.317999839782715 C-2.253999948501587,-5.926000118255615 -2.2980000972747803,-7.015999794006348 -2.430000066757202,-8.515999794006348 C-2.509999990463257,-9.42300033569336 -2.805000066757202,-10.192000389099121 -2.253999948501587,-10.413000106811523 C-1.7039999961853027,-10.633000373840332 0.14000000059604645,-8.904999732971191 0.41499999165534973,-8.692999839782715 C1.8480000495910645,-7.590000152587891 2.7750000953674316,-6.743000030517578 2.7750000953674316,-5.317999839782715 C2.7750000953674316,-5.317999839782715 2.7750000953674316,-5.317999839782715 2.7750000953674316,-5.317999839782715z"></path></g><g id="drop-4" opacity="1" transform="matrix(-1.0291111469268799,-1.0163661241531372,-1.1066360473632812,1.1205130815505981,-55.7508544921875,110.96949768066406)"><path fill="rgb(81,193,252)" fill-opacity="1" d=" M-4.73199987411499,-14.824000358581543 C-4.73199987411499,-12.838000297546387 -6.300000190734863,-11.22700023651123 -8.236000061035156,-11.22700023651123 C-10.17199993133545,-11.22700023651123 -11.741000175476074,-12.836999893188477 -11.741000175476074,-14.824000358581543 C-11.741000175476074,-15.670999526977539 -11.803000450134277,-17.191999435424805 -11.987000465393066,-19.281999588012695 C-12.097999572753906,-20.545000076293945 -12.510000228881836,-21.618999481201172 -11.741000175476074,-21.926000595092773 C-10.975000381469727,-22.23200035095215 -8.404999732971191,-19.822999954223633 -8.020999908447266,-19.527999877929688 C-6.0229997634887695,-17.990999221801758 -4.73199987411499,-16.81100082397461 -4.73199987411499,-14.824000358581543 C-4.73199987411499,-14.824000358581543 -4.73199987411499,-14.824000358581543 -4.73199987411499,-14.824000358581543z"></path></g></g><g id="glove-L" opacity="1" transform="matrix(0.7045679688453674,0.7096365094184875,-0.7096365094184875,0.7045679688453674,247.58505249023438,163.63047790527344)"><g id="palm-L" opacity="1" transform="matrix(1,0,0,1,12.850000381469727,58.90800476074219)"><path fill="rgb(241,0,86)" fill-opacity="1" d=" M-1.733625888824463,4.11837100982666 C-1.733625888824463,4.11837100982666 -14.70213508605957,-1.784162163734436 -8.248173713684082,-14.725780487060547 C-0.62638920545578,-30.072813034057617 18.001388549804688,-33.757930755615234 30.875383377075195,-25.50710678100586 C44.42816925048828,-16.75446128845215 52.214088439941406,-1.8372752666473389 41.576629638671875,14.110895156860352 C34.02165222167969,25.649385452270508 26.056018829345703,20.831933975219727 26.056018829345703,20.831933975219727 C26.056018829345703,20.831933975219727 19.939682006835938,19.480484008789062 11.779000282287598,14.723999977111816 C2.1387441158294678,9.060054779052734 -1.733625888824463,4.11837100982666 -1.733625888824463,4.11837100982666 C-1.733625888824463,4.11837100982666 -1.733625888824463,4.11837100982666 -1.733625888824463,4.11837100982666z"></path></g><g id="thumb-L" opacity="1" transform="matrix(1,0,0,1,8.567000389099121,54.625)"><path fill="rgb(255,75,142)" fill-opacity="1" d=" M-1.9673293828964233,4.333595275878906 C4.145700931549072,3.8797526359558105 3.2606217861175537,-0.6250656843185425 3.810814142227173,-6.637277603149414 C4.334775447845459,-12.406064987182617 5.542784690856934,-18.307769775390625 -0.3682411015033722,-18.557384490966797 C-8.129087448120117,-18.891616821289062 -11.218977928161621,-12.6724853515625 -11.339824676513672,-7.792118072509766 C-11.450209617614746,-3.1987524032592773 -8.50297737121582,4.808514595031738 -1.9673293828964233,4.333595275878906 C-1.9673293828964233,4.333595275878906 -1.9673293828964233,4.333595275878906 -1.9673293828964233,4.333595275878906z"></path></g></g><g id="glove-R" opacity="1" transform="matrix(0.6779230833053589,-0.7351328134536743,0.7351328134536743,0.6779230833053589,66.2881851196289,216.85336303710938)"><g id="palm-R" opacity="1" transform="matrix(-1,0,0,1,58.77300262451172,58.90899658203125)"><path fill="rgb(241,0,86)" fill-opacity="1" d=" M-2.7517473697662354,4.768644332885742 C-2.7517473697662354,4.768644332885742 -15.919527053833008,0.01054107304662466 -8.975139617919922,-13.514119148254395 C-0.9969683885574341,-29.041500091552734 14.58202075958252,-32.71442413330078 30.145263671875,-23.692481994628906 C41.946075439453125,-16.847501754760742 51.20269775390625,-2.382317066192627 40.524818420410156,15.366133689880371 C34.54619598388672,25.40611457824707 25.913516998291016,19.711313247680664 25.913516998291016,19.711313247680664 C25.913516998291016,19.711313247680664 21.49295997619629,20.02610206604004 11.779000282287598,14.723999977111816 C1.4990864992141724,9.143054962158203 -2.7517473697662354,4.768644332885742 -2.7517473697662354,4.768644332885742 C-2.7517473697662354,4.768644332885742 -2.7517473697662354,4.768644332885742 -2.7517473697662354,4.768644332885742z"></path></g><g id="thumb-R" opacity="1" transform="matrix(-1,0,0,1,61.382999420166016,54.625)"><path fill="rgb(255,75,142)" fill-opacity="1" d=" M-4.660730361938477,7.495922088623047 C0.2134076952934265,6.950040340423584 0.6833368539810181,5.464048385620117 1.218336820602417,-3.6379518508911133 C1.7539137601852417,-12.740374565124512 1.4033364057540894,-15.62167739868164 -4.486189365386963,-16.10310173034668 C-9.546326637268066,-16.504140853881836 -13.88226318359375,-11.584824562072754 -14.473612785339355,-5.747836112976074 C-15.206462860107422,1.0946581363677979 -9.89856243133545,8.077073097229004 -4.660730361938477,7.495922088623047 C-4.660730361938477,7.495922088623047 -4.660730361938477,7.495922088623047 -4.660730361938477,7.495922088623047z"></path></g></g></g></g></svg>